<svg xmlns="http://www.w3.org/2000/svg" viewBox="0 0 780 240" role="img" aria-labelledby="title desc">
  <title id="title">Cottonwood Harbor</title>
  <desc id="desc">A lighthouse emblem beside the Cottonwood Harbor wordmark.</desc>
  <defs>
    <clipPath id="badgeClip">
      <circle cx="120" cy="120" r="90"/>
    </clipPath>
  </defs>
  <circle cx="120" cy="120" r="96" fill="#F7F3EC" stroke="#08263F" stroke-width="8"/>
  <g clip-path="url(#badgeClip)">
    <rect x="30" y="30" width="180" height="180" fill="#F7F3EC"/>
    <path d="M43 160c28-22 54-24 80-6 26 18 51 16 78-7v63H43z" fill="#08263F"/>
    <path d="M44 178c22-15 43-16 64-1 23 16 50 14 81-7" fill="none" stroke="#F7F3EC" stroke-width="7" stroke-linecap="round"/>
    <path d="M52 190c19-11 38-11 56 1 25 16 52 14 84-8" fill="none" stroke="#F7F3EC" stroke-width="5" stroke-linecap="round"/>
    <path d="M95 151h50l-8-68H103z" fill="#08263F"/>
    <path d="M103 83h34l-6-18h-22z" fill="#08263F"/>
    <path d="M111 63h18v-9h-18z" fill="#08263F"/>
    <path d="M106 101h28" stroke="#F7F3EC" stroke-width="4"/>
    <path d="M111 123h20" stroke="#F7F3EC" stroke-width="4"/>
    <path d="M75 72l-46-16M75 81L28 82M165 72l46-16M165 81l47 1" stroke="#B66A2E" stroke-width="5" stroke-linecap="round"/>
    <path d="M120 48v-15" stroke="#08263F" stroke-width="6" stroke-linecap="round"/>
  </g>
  <text x="250" y="113" font-family="Georgia, 'Times New Roman', serif" font-size="55" letter-spacing="2" fill="#08263F">COTTONWOOD</text>
  <line x1="250" y1="143" x2="345" y2="143" stroke="#B66A2E" stroke-width="4"/>
  <text x="370" y="153" font-family="Arial, sans-serif" font-size="35" letter-spacing="9" fill="#B66A2E">HARBOR</text>
  <line x1="602" y1="143" x2="705" y2="143" stroke="#B66A2E" stroke-width="4"/>
</svg>
